<svg width="88" height="89" viewBox="0 0 88 89" fill="none" xmlns="http://www.w3.org/2000/svg">
<circle cx="44" cy="44.75" r="44" fill="#0075FF"/>
<path d="M63.9069 48.9805L69.4948 46.1979C69.7107 46.0902 69.9029 45.9404 70.0601 45.7573C70.2173 45.5742 70.3363 45.3615 70.4101 45.1317C70.4838 44.902 70.5109 44.6598 70.4897 44.4194C70.4685 44.179 70.3995 43.9453 70.2866 43.732L64.7213 33.0766C64.5041 32.6578 64.13 32.342 63.6808 32.1979C63.2316 32.0538 62.7436 32.0932 62.3233 32.3074L56.6676 35.1353M63.9069 48.9805L56.6676 35.1353M63.9069 48.9805L60.2872 53.2336M56.6676 35.1353H47.46C47.225 35.1344 46.9922 35.18 46.7748 35.2693C46.5574 35.3585 46.3597 35.4898 46.1931 35.6556L37.3249 44.5012C37.1439 44.6871 37.0043 44.9093 36.9156 45.1532C36.8269 45.397 36.7909 45.6569 36.8102 45.9157C36.8294 46.1745 36.9034 46.4263 37.0273 46.6543C37.1511 46.8824 37.322 47.0815 37.5285 47.2386L38.7502 48.1661C40.0048 49.1025 41.5283 49.6083 43.0938 49.6083C44.6593 49.6083 46.1828 49.1025 47.4374 48.1661L50.3331 45.9943L60.2872 53.2336M24.0905 48.7543L18.5026 45.949C18.2875 45.8436 18.0957 45.696 17.9388 45.5149C17.7818 45.3339 17.6629 45.1231 17.589 44.8952C17.5151 44.6673 17.4879 44.4268 17.5088 44.1881C17.5297 43.9494 17.5984 43.7174 17.7108 43.5058L23.2761 32.8504C23.4938 32.4319 23.8663 32.115 24.3142 31.9671C24.7621 31.8192 25.25 31.852 25.6741 32.0585L31.3299 34.8864L24.0905 48.7543ZM24.0905 48.7543L36.4653 58.4143C36.6583 58.5713 36.8816 58.6868 37.1213 58.7536L50.2427 62.034C50.5463 62.0996 50.8613 62.0906 51.1607 62.0079C51.4602 61.9251 51.7351 61.7711 51.962 61.5589L60.2872 53.2336M31.4656 34.8864L43.0712 31.493C43.4835 31.3747 43.9245 31.4068 44.3154 31.5835L52.143 35.1353" stroke="white" stroke-width="2.2" stroke-linecap="round" stroke-linejoin="round"/>
</svg>
